<?xml version="1.0" standalone="no"?>
<!DOCTYPE svg PUBLIC "-//W3C//DTD SVG 20010904//EN"
 "http://www.w3.org/TR/2001/REC-SVG-20010904/DTD/svg10.dtd">
<svg version="1.0" xmlns="http://www.w3.org/2000/svg"
 width="1080.000000pt" height="1080.000000pt" viewBox="0 0 1080.000000 1080.000000"
 preserveAspectRatio="xMidYMid meet">
<metadata>
Created by potrace 1.14, written by Peter Selinger 2001-2017
</metadata>
<g transform="translate(0.000000,1080.000000) scale(0.100000,-0.100000)"
fill="#000000" stroke="none">
<path d="M1558 8048 c-1 -23 -4 -39 -8 -48 -1 -3 -3 -16 -4 -30 -1 -14 -6 -54
-10 -90 -4 -36 -9 -82 -12 -104 -2 -21 -7 -43 -11 -49 -3 -6 -1 -7 5 -3 8 5 8
-2 0 -26 -8 -22 -12 -130 -12 -315 l-1 -281 25 -22 c14 -12 38 -31 53 -43 16
-12 34 -27 40 -32 7 -6 37 -27 67 -47 118 -79 139 -96 133 -102 -4 -3 0 -6 9
-6 8 0 25 -9 38 -20 13 -11 29 -20 37 -20 8 0 12 -4 9 -9 -3 -5 3 -11 14 -14
31 -8 33 -9 54 -29 10 -9 23 -15 28 -12 4 3 8 2 8 -3 0 -4 20 -21 45 -36 25
-16 45 -33 45 -39 0 -5 4 -7 9 -4 5 3 19 -2 32 -12 13 -10 44 -30 69 -43 25
-13 47 -26 50 -29 10 -10 45 -31 63 -36 9 -4 17 -11 17 -17 0 -6 3 -7 7 -4 3
4 13 1 21 -5 17 -14 42 -29 97 -57 22 -11 53 -29 69 -40 17 -11 33 -18 38 -15
4 3 8 0 8 -5 0 -6 7 -11 15 -11 8 0 15 -3 15 -7 0 -5 19 -17 43 -27 23 -11 50
-26 59 -34 9 -8 21 -11 27 -8 5 4 13 0 18 -8 8 -14 153 -89 153 -80 0 3 7 -2
16 -11 9 -9 29 -19 45 -22 16 -3 29 -9 29 -13 0 -8 38 -23 53 -21 4 1 7 -3 7
-9 0 -6 3 -9 8 -8 4 1 17 -3 28 -10 12 -6 24 -8 28 -5 3 3 6 2 6 -4 0 -8 29
-23 128 -64 17 -8 32 -17 32 -21 0 -5 9 -8 20 -8 11 0 20 -4 20 -10 0 -5 7
-10 15 -10 14 0 53 -18 65 -30 3 -3 12 -6 20 -7 13 -2 15 32 16 255 1 141 3
268 6 282 5 26 -19 57 -62 80 -13 7 -29 17 -34 21 -48 38 -77 59 -111 79 -22
13 -44 30 -48 37 -4 7 -15 13 -22 13 -8 0 -15 5 -15 12 0 6 -3 9 -6 5 -3 -3
-15 2 -26 11 -11 9 -29 25 -40 35 -12 9 -24 17 -28 17 -3 0 -16 9 -28 20 -12
12 -22 17 -22 13 0 -4 -4 -3 -8 2 -4 6 -34 30 -67 55 -33 25 -61 48 -63 53 -2
4 -10 7 -17 7 -7 0 -15 3 -17 8 -5 13 -85 72 -97 72 -6 0 -11 4 -11 9 0 6 -27
29 -60 52 -33 23 -60 46 -60 50 0 5 -5 9 -11 9 -6 0 -16 6 -23 13 -7 6 -28 23
-46 37 -18 14 -38 30 -44 35 -6 6 -31 26 -56 45 -25 19 -47 38 -48 42 -2 5 -8
6 -13 2 -5 -3 -9 -1 -9 4 0 5 -30 34 -67 64 -97 77 -113 90 -139 116 -13 12
-25 22 -27 22 -3 0 -28 23 -56 50 -28 28 -54 50 -57 50 -2 0 -20 15 -38 33
-19 17 -66 61 -106 97 -40 36 -91 82 -112 103 -21 20 -43 37 -48 37 -6 0 -10
5 -10 10 0 6 -18 27 -39 48 -114 107 -110 104 -113 70z"/>
<path d="M9214 8060 c2 -3 -7 -15 -20 -28 -13 -12 -24 -21 -24 -18 0 3 -13 -7
-28 -22 -15 -15 -27 -30 -25 -34 2 -4 -6 -9 -17 -13 -11 -4 -18 -11 -15 -16 4
-5 2 -9 -3 -9 -16 0 -72 -57 -64 -65 4 -4 2 -5 -5 -1 -6 3 -19 -4 -27 -16 -9
-12 -16 -20 -16 -16 0 3 -23 -16 -50 -43 -28 -27 -52 -49 -54 -49 -2 0 -29
-25 -60 -55 -31 -30 -58 -55 -60 -55 -3 0 -29 -23 -58 -51 -29 -27 -65 -58
-80 -67 -16 -9 -28 -23 -28 -31 0 -8 -3 -12 -6 -8 -3 3 -15 -2 -26 -11 -43
-36 -57 -48 -99 -82 -23 -19 -60 -50 -81 -69 -21 -18 -38 -31 -38 -27 0 3 -17
-10 -37 -29 -60 -54 -73 -65 -78 -65 -5 0 -37 -25 -60 -47 -8 -7 -19 -13 -26
-13 -7 0 -9 -3 -6 -7 4 -3 -6 -14 -22 -24 -31 -19 -62 -43 -93 -71 -10 -10
-18 -16 -18 -13 0 8 -134 -97 -143 -112 -5 -8 -12 -11 -17 -8 -5 3 -15 -3 -22
-15 -7 -11 -17 -20 -23 -20 -9 0 -46 -27 -87 -64 -10 -9 -18 -14 -18 -11 0 3
-6 1 -12 -5 -40 -33 -108 -80 -117 -80 -6 0 -11 -4 -11 -10 0 -5 -6 -10 -14
-10 -8 0 -16 -7 -20 -15 -3 -8 -12 -15 -21 -15 -8 0 -15 -4 -15 -10 0 -5 -7
-10 -15 -10 -9 0 -18 -7 -21 -15 -4 -8 -10 -13 -14 -10 -5 3 -13 -3 -19 -12
-6 -10 -11 -14 -11 -10 0 4 -14 -5 -30 -20 -27 -25 -29 -32 -21 -60 6 -21 6
-35 0 -39 -7 -4 -6 -10 0 -18 6 -7 9 -98 7 -238 l-2 -226 31 11 c16 5 35 14
41 18 6 5 14 6 17 2 4 -3 7 -1 7 6 0 7 6 11 13 8 6 -2 19 3 27 12 8 9 26 17
40 19 13 1 27 7 31 13 3 6 12 11 20 13 8 1 40 14 73 29 32 15 63 29 70 30 6 1
15 7 21 14 5 6 19 13 30 15 11 2 28 10 38 20 11 9 31 19 45 23 15 4 29 10 32
13 3 4 59 34 125 67 137 69 257 136 266 148 3 5 12 9 20 10 8 2 30 11 49 22
19 11 52 29 73 40 20 11 37 23 37 28 0 4 5 5 10 2 6 -3 10 -1 10 4 0 6 6 11
14 11 7 0 19 7 26 15 7 8 16 12 21 10 4 -3 11 1 16 9 4 8 10 14 13 14 5 -1 66
36 138 83 24 16 45 29 47 29 5 0 98 62 105 69 3 4 17 12 33 20 15 8 27 18 27
23 0 4 6 8 14 8 7 0 25 11 39 24 14 13 28 21 31 18 3 -3 6 0 6 7 0 7 5 9 10 6
6 -3 10 -2 10 3 0 5 33 31 73 57 39 26 74 52 75 57 2 4 10 8 18 8 8 0 17 7 20
15 4 8 11 15 18 15 16 1 69 57 73 78 6 30 4 344 -3 412 -3 36 -6 83 -6 105 -1
22 -5 48 -10 59 -8 14 -7 17 3 11 8 -5 10 -4 5 3 -4 6 -8 28 -11 49 -2 21 -7
70 -11 108 -3 39 -8 82 -9 96 -1 15 -5 32 -9 38 -4 6 -1 11 6 11 8 0 9 3 3 8
-6 4 -10 17 -9 29 1 15 -4 21 -17 20 -10 -1 -16 -4 -15 -7z"/>
<path d="M9178 6633 c-10 -2 -18 -8 -18 -12 0 -4 -16 -13 -35 -20 -19 -7 -35
-17 -35 -22 0 -5 -6 -9 -14 -9 -16 0 -110 -51 -114 -62 -2 -4 -8 -6 -12 -3 -5
3 -24 -3 -42 -13 -30 -16 -79 -39 -194 -89 -21 -9 -42 -16 -46 -15 -5 1 -8 -2
-8 -8 0 -5 -9 -10 -20 -10 -11 0 -20 -4 -20 -10 0 -6 -3 -9 -7 -8 -14 4 -53
-13 -53 -22 0 -5 -6 -7 -14 -4 -7 3 -22 -3 -31 -13 -10 -10 -19 -17 -19 -15
-1 3 -25 -5 -81 -29 -16 -7 -33 -12 -37 -11 -5 1 -8 -2 -8 -8 0 -5 -3 -9 -7
-8 -9 1 -31 -6 -83 -30 -19 -8 -41 -15 -47 -15 -7 0 -13 -4 -13 -9 0 -4 -9 -8
-20 -8 -11 0 -20 -5 -20 -11 0 -5 -4 -7 -10 -4 -5 3 -20 -1 -32 -9 -12 -9 -29
-16 -37 -16 -8 0 -23 -8 -34 -17 -11 -10 -17 -13 -14 -6 4 6 -20 -2 -53 -18
-33 -16 -67 -29 -75 -29 -8 0 -15 -5 -15 -11 0 -5 -3 -8 -8 -5 -4 2 -22 -2
-40 -9 -18 -8 -34 -14 -37 -15 -3 0 -26 -10 -52 -21 -27 -12 -55 -22 -63 -24
-26 -6 -274 -95 -307 -110 -17 -8 -35 -15 -41 -15 -18 0 -33 -28 -35 -64 -1
-20 -5 -36 -8 -36 -3 0 -5 -18 -5 -40 1 -22 -3 -40 -8 -40 -5 0 -7 -3 -4 -6 3
-3 0 -32 -8 -65 -8 -34 -12 -64 -9 -69 3 -5 1 -11 -5 -15 -5 -3 -10 -19 -10
-35 0 -16 -4 -31 -8 -34 -4 -2 -9 -19 -10 -37 -1 -17 -6 -37 -9 -43 -4 -6 -9
-19 -10 -30 -3 -17 2 -18 59 -13 126 11 178 17 203 27 19 7 24 7 19 -2 -4 -7
-3 -8 4 -4 7 4 35 11 64 16 29 5 64 12 78 15 29 7 89 17 108 18 6 0 12 3 12 6
0 3 12 7 28 8 26 1 81 10 92 13 3 2 8 2 13 1 4 0 7 4 7 9 0 7 6 7 19 0 13 -6
21 -6 23 0 2 5 15 11 31 12 15 1 27 5 27 8 0 3 10 6 23 7 12 1 33 4 47 7 14 3
38 9 54 12 16 2 33 7 38 10 4 3 17 7 28 10 28 6 43 10 138 37 45 14 82 22 82
20 0 -3 6 -1 13 5 6 6 29 13 50 17 20 4 40 11 43 16 3 5 10 7 15 3 5 -3 16 0
24 6 8 7 15 9 15 5 0 -4 7 -2 15 5 8 7 15 9 15 4 0 -4 5 -3 12 4 7 7 22 12 35
12 13 0 23 5 23 11 0 5 4 8 10 4 5 -3 17 -1 27 4 10 6 54 22 98 36 44 15 88
31 97 36 10 5 23 9 29 9 32 0 89 125 114 249 2 9 8 28 13 42 6 15 8 29 5 32
-3 3 -1 12 3 19 9 13 9 15 19 60 3 15 9 38 14 50 4 13 7 31 6 41 -2 9 0 17 4
17 4 0 7 8 7 18 1 15 7 48 19 102 2 8 4 15 5 15 1 0 3 11 5 25 1 14 8 57 15
95 15 83 22 135 18 134 -2 -1 -11 -3 -20 -6z"/>
<path d="M1606 6588 c4 -24 8 -52 10 -63 2 -19 8 -54 19 -105 3 -14 7 -38 10
-55 10 -63 22 -117 35 -160 1 -5 4 -14 5 -20 2 -5 6 -21 8 -35 3 -14 8 -35 11
-47 9 -36 16 -61 20 -83 3 -11 17 -60 33 -108 15 -48 27 -89 28 -92 0 -3 6
-20 14 -37 12 -29 22 -36 47 -32 4 0 10 -4 14 -11 4 -6 13 -13 21 -14 8 -2 21
-6 29 -9 16 -6 84 -27 103 -32 7 -2 21 -6 32 -9 11 -4 24 -6 29 -6 5 1 12 -3
15 -9 4 -6 16 -12 26 -14 11 -1 25 -6 32 -10 6 -4 23 -8 37 -9 14 -1 26 -6 26
-10 0 -4 10 -8 23 -8 13 0 28 -5 35 -12 7 -7 12 -9 12 -5 0 4 16 0 36 -8 20
-8 40 -13 44 -10 5 3 11 1 14 -4 4 -5 25 -12 49 -16 23 -4 50 -11 59 -16 9 -5
28 -10 42 -11 15 -1 26 -5 26 -9 0 -6 20 -11 95 -24 17 -2 41 -9 55 -15 14 -5
36 -11 50 -13 14 -2 32 -6 40 -10 8 -3 22 -5 30 -5 8 0 26 -3 40 -7 14 -3 39
-9 55 -12 42 -7 48 -9 68 -18 9 -4 23 -5 31 -2 8 3 17 3 20 -1 8 -7 27 -12 86
-19 25 -3 47 -8 50 -12 4 -5 20 -7 110 -15 14 -1 30 -5 37 -9 6 -4 22 -7 34
-6 13 0 42 -2 64 -5 22 -3 66 -8 99 -12 l59 -6 -5 29 c-3 15 -13 55 -21 88
-16 58 -22 85 -34 150 -3 17 -8 32 -11 35 -4 3 -8 21 -8 40 -1 33 -10 99 -14
110 -4 10 -7 25 -8 47 -2 15 -13 25 -44 36 -24 9 -68 25 -98 37 -30 12 -61 22
-67 23 -7 0 -13 4 -13 8 0 5 -6 6 -14 3 -8 -3 -17 -1 -21 5 -3 6 -15 11 -26
11 -11 0 -31 7 -44 16 -13 9 -29 13 -35 9 -5 -3 -10 -1 -10 4 0 6 -8 11 -18
11 -10 0 -22 4 -28 10 -5 5 -18 11 -29 13 -11 2 -31 9 -45 14 -14 6 -28 9 -32
6 -5 -2 -8 0 -8 5 0 6 -12 13 -27 17 -15 3 -52 17 -81 31 -29 13 -55 24 -57
24 -6 0 -92 37 -117 51 -10 5 -25 9 -33 9 -8 0 -15 4 -15 10 0 5 -3 9 -7 8
-10 -3 -124 42 -138 54 -5 4 -20 8 -33 8 -13 0 -20 4 -17 10 4 6 -5 10 -19 10
-14 0 -26 5 -26 10 0 6 -5 10 -12 10 -11 0 -80 29 -120 51 -10 5 -25 9 -33 9
-8 0 -15 5 -15 12 0 6 -3 8 -6 5 -4 -3 -16 0 -28 8 -11 8 -28 15 -37 15 -10 0
-19 4 -21 9 -1 5 -12 11 -23 13 -11 1 -22 5 -25 8 -3 3 -40 21 -82 39 -43 19
-78 38 -78 43 0 5 -4 7 -8 4 -5 -3 -30 6 -55 20 -26 13 -47 21 -47 17 0 -5 -4
-3 -8 2 -10 15 -49 35 -67 35 -8 0 -15 5 -15 12 0 6 -3 9 -6 5 -4 -3 -13 1
-21 9 -8 8 -19 12 -24 9 -5 -4 -9 -1 -9 4 0 6 -7 11 -16 11 -13 0 -15 -7 -8
-42z"/>
<path d="M3579 6468 c-9 -20 -13 -370 -5 -473 13 -161 16 -192 21 -215 2 -13
7 -40 10 -60 3 -20 8 -47 10 -60 3 -14 8 -41 11 -60 8 -46 12 -65 14 -65 1 0
3 -11 6 -25 2 -14 7 -32 11 -40 3 -8 7 -22 9 -30 7 -39 11 -50 16 -56 4 -3 4
-12 1 -20 -3 -8 1 -14 8 -14 7 0 9 -3 6 -7 -4 -3 -2 -12 4 -20 6 -7 9 -13 5
-13 -4 0 1 -14 9 -30 9 -17 13 -35 10 -40 -3 -6 -1 -10 6 -10 7 0 9 -3 6 -7
-4 -3 -2 -12 4 -20 6 -7 8 -13 4 -13 -4 0 3 -16 14 -36 12 -20 20 -39 17 -41
-3 -3 2 -12 10 -20 8 -8 12 -19 9 -24 -4 -5 -1 -9 4 -9 6 0 11 -6 11 -14 0 -7
19 -49 42 -92 42 -80 49 -90 81 -125 9 -10 17 -21 17 -24 -1 -13 34 -71 46
-78 8 -4 14 -13 14 -20 0 -7 14 -28 30 -47 17 -19 41 -48 53 -64 12 -15 30
-36 40 -44 9 -9 17 -22 17 -29 0 -6 9 -15 20 -18 11 -3 20 -11 20 -16 0 -14
26 -39 39 -39 6 0 11 -4 11 -10 0 -5 14 -23 30 -40 17 -17 30 -27 30 -23 0 4
9 -5 20 -22 11 -16 20 -27 20 -23 0 4 13 -5 28 -20 16 -15 46 -40 67 -57 21
-16 48 -38 59 -47 62 -52 86 -69 86 -63 0 3 12 -6 28 -20 15 -14 35 -28 45
-31 9 -3 17 -10 17 -15 0 -5 7 -9 15 -9 8 0 15 -4 15 -10 0 -5 6 -10 14 -10 7
0 19 -7 26 -15 7 -8 16 -13 20 -10 5 3 10 1 12 -4 4 -12 239 -131 248 -126 9
5 6 352 -3 361 -4 4 -2 13 4 21 8 9 8 13 1 13 -6 0 -13 9 -17 20 -3 11 -10 19
-14 17 -10 -3 -66 57 -88 94 -10 16 -20 29 -23 29 -4 0 -17 23 -30 50 -13 28
-27 50 -32 50 -5 0 -7 4 -4 9 4 5 1 22 -5 38 -20 50 -37 133 -27 133 5 0 6 5
2 11 -8 14 -8 104 1 144 15 73 29 114 60 177 19 38 32 68 29 68 -7 0 124 129
164 162 17 14 32 24 32 21 0 -4 8 1 18 10 10 10 22 14 25 10 4 -3 7 -2 7 4 0
6 21 16 48 23 26 7 52 16 57 20 6 4 17 8 25 8 21 1 62 10 67 16 3 3 16 1 29
-4 13 -5 24 -6 24 -1 0 5 15 7 33 6 17 -2 58 -6 91 -10 32 -3 64 -9 70 -12 6
-4 17 -8 24 -9 7 -2 33 -12 58 -23 24 -12 48 -21 54 -21 5 0 10 -4 10 -10 0
-5 7 -10 15 -10 8 0 15 -4 15 -10 0 -5 4 -10 10 -10 22 0 126 -100 167 -161
75 -112 98 -190 98 -339 0 -124 -9 -173 -43 -250 -9 -19 -15 -38 -14 -42 1 -5
-2 -8 -7 -8 -5 0 -14 -13 -21 -30 -7 -16 -16 -27 -21 -24 -5 3 -9 -4 -9 -15 0
-11 -10 -27 -22 -35 -12 -9 -19 -16 -16 -16 4 0 -3 -11 -15 -23 -12 -13 -26
-23 -32 -23 -5 1 -9 -6 -10 -14 -1 -8 -6 -14 -13 -12 -14 2 -14 5 -17 -78 -1
-36 3 -71 9 -79 8 -10 8 -13 0 -8 -7 4 -11 -32 -11 -118 0 -69 4 -125 9 -125
4 0 16 4 26 9 9 6 51 27 92 47 124 62 130 65 130 75 0 6 4 8 9 4 5 -3 12 -1
16 5 4 6 11 8 16 5 5 -4 9 0 9 8 0 7 6 14 13 14 16 0 77 44 77 55 0 5 4 7 8 4
5 -3 23 8 42 24 19 16 38 26 43 23 6 -3 7 -2 4 3 -3 5 11 21 31 34 20 14 42
29 48 35 6 5 28 24 48 40 21 17 68 58 105 92 36 35 69 63 74 63 4 0 7 6 7 13
0 7 22 34 50 60 27 26 47 47 43 47 -4 0 2 8 13 19 34 32 64 71 64 82 0 5 5 7
10 4 6 -3 10 -1 10 5 0 12 41 73 53 78 4 2 7 9 7 17 0 7 7 18 15 25 8 7 13 16
10 20 -3 4 2 10 10 14 8 3 15 12 15 21 0 8 4 15 8 15 5 0 15 12 23 28 8 15 16
29 19 32 3 3 18 33 34 68 16 34 34 62 40 62 5 0 7 3 3 6 -7 8 13 64 23 64 5 0
7 11 6 25 -2 13 5 33 16 44 10 12 18 23 17 26 -2 14 13 65 20 65 4 0 8 6 9 13
0 6 12 53 26 102 26 90 38 139 39 163 0 6 3 12 6 12 3 0 7 12 7 28 1 15 5 38
9 52 4 14 8 48 10 75 2 28 6 57 9 65 19 50 31 628 13 667 -8 19 -13 20 -31 10
-11 -7 -23 -14 -26 -17 -3 -3 -41 -27 -85 -53 -44 -25 -86 -51 -92 -57 -7 -6
-24 -15 -38 -20 -14 -5 -25 -13 -25 -18 0 -4 -9 -8 -20 -9 -11 -1 -27 -9 -36
-17 -8 -9 -20 -17 -25 -17 -29 -4 -79 -30 -79 -41 0 -5 -4 -7 -9 -3 -5 3 -15
0 -23 -7 -7 -7 -17 -13 -23 -14 -21 -1 -261 -122 -277 -140 -9 -11 -19 -30
-21 -44 -2 -14 -6 -32 -10 -40 -3 -8 -5 -22 -5 -30 0 -25 -16 -143 -25 -185
-8 -33 -21 -139 -19 -147 1 -5 -2 -8 -6 -8 -4 0 -8 -10 -9 -22 -1 -22 -10 -73
-13 -73 -2 0 -5 -15 -13 -60 -3 -16 -8 -41 -11 -55 -11 -47 -19 -95 -17 -98 1
-1 -6 -16 -15 -33 -8 -17 -13 -33 -11 -36 5 -4 -45 -151 -77 -225 -9 -21 -21
-38 -26 -38 -6 0 -13 0 -17 0 -5 0 -8 3 -8 8 0 4 -3 12 -7 18 -4 6 -9 23 -12
38 -3 15 -10 33 -15 40 -6 7 -8 16 -4 19 3 4 -1 9 -10 13 -9 3 -13 12 -10 20
3 8 0 14 -6 14 -6 0 -11 6 -11 14 0 7 -16 34 -35 60 -20 25 -34 46 -31 46 8 0
-98 104 -140 137 -49 39 -174 104 -186 97 -4 -3 -8 0 -8 6 0 7 -6 10 -14 7 -7
-3 -18 -1 -23 4 -6 6 -25 12 -44 15 -51 6 -78 12 -91 20 -7 5 -8 3 -3 -6 6 -9
4 -11 -5 -5 -18 11 -89 14 -96 4 -2 -5 -16 -4 -29 1 -14 5 -25 6 -25 2 0 -4
-15 -8 -33 -8 -37 -2 -76 -10 -113 -24 -14 -6 -30 -8 -35 -4 -5 3 -9 1 -9 -3
0 -5 -9 -14 -21 -21 -14 -9 -19 -9 -14 -2 4 6 -11 0 -34 -14 -22 -14 -43 -26
-45 -26 -10 0 -80 -51 -101 -74 -13 -14 -25 -22 -28 -20 -3 3 -8 -4 -12 -15
-3 -12 -10 -21 -14 -21 -9 0 -76 -91 -76 -103 0 -4 -5 -11 -10 -15 -14 -10
-55 -96 -55 -116 0 -9 -4 -16 -8 -16 -4 0 -8 -9 -9 -20 -2 -24 -33 -90 -42
-90 -12 0 -56 96 -53 113 1 4 -2 7 -8 7 -5 0 -10 5 -10 11 0 5 6 7 13 4 6 -4
5 -1 -4 7 -9 7 -14 19 -12 26 3 6 0 12 -7 12 -6 0 -9 4 -6 8 3 5 -1 21 -9 36
-8 15 -14 30 -14 34 1 4 0 10 -1 15 -3 8 -3 9 -13 52 -9 39 -17 74 -24 105 -3
14 -10 31 -16 38 -6 8 -6 12 2 12 7 0 9 4 6 10 -6 10 -14 41 -19 75 -2 11 -4
20 -5 20 -2 0 -5 9 -7 20 -4 18 -7 37 -19 115 -2 14 -7 39 -11 55 -4 17 -6 39
-6 50 1 11 -4 23 -11 27 -9 6 -9 8 0 8 9 0 10 7 4 23 -4 12 -6 28 -4 35 3 6 1
12 -4 12 -4 0 -8 12 -9 28 -2 53 -8 94 -16 98 -4 3 -8 14 -8 25 0 10 -4 19
-10 19 -5 0 -10 7 -10 16 0 8 -4 13 -9 10 -5 -4 -11 -2 -13 3 -3 10 -250 131
-267 131 -6 0 -11 5 -11 10 0 6 -5 10 -12 10 -18 0 -88 33 -88 42 0 4 -7 8
-16 8 -15 0 -73 28 -84 41 -3 3 -20 12 -37 20 -18 8 -33 18 -33 22 0 5 -4 6
-9 3 -5 -3 -14 1 -21 9 -7 8 -19 15 -26 15 -8 0 -14 5 -14 10 0 6 -5 10 -11
10 -6 0 -29 13 -52 29 -46 31 -86 53 -88 49z"/>
<path d="M2100 5340 c-8 -5 -27 -6 -44 -3 l-30 6 22 -30 c12 -17 22 -36 22
-42 0 -5 8 -15 18 -20 9 -6 13 -11 9 -11 -4 0 6 -20 23 -44 16 -25 30 -49 30
-55 0 -6 4 -11 8 -11 5 0 15 -12 23 -27 8 -15 20 -34 27 -43 37 -43 62 -76 62
-83 0 -4 16 -23 35 -42 19 -19 32 -35 29 -35 -3 0 12 -21 34 -47 23 -27 52
-61 66 -78 14 -16 38 -42 53 -58 l28 -27 160 4 c88 3 185 7 215 11 30 3 71 7
90 9 19 2 35 4 35 5 0 3 71 11 123 13 23 1 42 5 42 8 0 3 10 5 23 6 40 1 161
15 168 20 3 2 28 6 55 8 27 3 60 8 74 11 14 3 45 8 70 10 25 2 46 4 48 6 1 1
7 3 12 4 6 1 13 4 18 5 8 3 11 3 77 13 68 11 81 19 61 40 -9 8 -16 22 -16 30
0 8 -9 24 -20 37 -19 22 -24 35 -21 53 0 4 -4 7 -9 7 -6 0 -10 9 -10 20 0 11
-5 20 -11 20 -5 0 -8 4 -5 9 3 5 -1 14 -9 21 -8 7 -15 16 -15 21 0 5 -14 40
-32 79 -36 78 -20 71 -170 75 -43 1 -80 4 -84 7 -3 3 -19 2 -35 -2 -16 -5 -27
-5 -25 -1 3 4 -32 8 -76 9 -45 2 -84 5 -89 7 -4 3 -10 1 -14 -5 -4 -6 -12 -7
-18 -3 -7 4 -41 9 -77 10 -59 3 -132 8 -217 16 -18 2 -35 6 -39 9 -3 4 -16 3
-29 -2 -13 -5 -26 -6 -30 -2 -7 7 -74 13 -182 15 -35 1 -63 5 -63 8 0 3 -28 7
-62 8 -34 1 -67 5 -72 10 -6 4 -22 5 -36 1 -14 -4 -36 -3 -50 1 -14 4 -50 10
-81 12 -31 2 -61 7 -66 10 -5 3 -15 2 -23 -3z"/>
<path d="M8575 5332 c-22 -1 -47 -5 -55 -9 -8 -3 -31 -6 -50 -5 -19 0 -38 -5
-42 -11 -6 -9 -8 -9 -8 0 0 7 -6 11 -12 8 -15 -5 -106 -14 -198 -20 -144 -10
-197 -14 -230 -19 -67 -10 -297 -25 -420 -26 -41 -1 -79 -4 -84 -7 -15 -10
-96 -9 -96 0 0 5 -5 5 -10 2 -6 -4 -39 -8 -73 -11 -104 -7 -103 -6 -134 -84
-6 -14 -11 -29 -12 -35 -1 -5 -9 -17 -17 -26 -8 -9 -11 -19 -8 -22 4 -4 0 -9
-9 -13 -9 -3 -13 -12 -10 -20 3 -8 0 -14 -6 -14 -6 0 -11 -7 -11 -15 0 -8 -11
-34 -25 -58 -13 -25 -22 -47 -18 -50 3 -4 -2 -9 -11 -13 -9 -3 -13 -10 -10
-15 3 -5 -2 -12 -10 -15 -9 -3 -13 -10 -10 -15 3 -5 10 -7 15 -4 5 4 9 2 9 -3
0 -5 14 -8 30 -7 17 1 33 -2 36 -6 2 -4 17 -8 32 -8 42 -1 76 -6 87 -12 6 -4
24 -7 40 -8 34 -2 80 -8 80 -11 0 -1 12 -3 26 -4 14 -2 31 -6 37 -10 7 -4 12
-2 12 6 0 10 2 10 8 0 5 -6 19 -12 33 -12 13 1 42 -2 64 -5 22 -4 57 -7 77 -8
21 -1 38 -5 38 -8 0 -3 19 -7 43 -8 57 -3 112 -9 112 -11 0 -6 198 -20 374
-27 l134 -5 43 46 c24 25 44 49 44 54 0 4 8 14 18 23 9 8 26 28 37 43 11 15
27 36 36 46 8 10 24 31 35 46 10 14 29 38 41 52 13 13 20 28 18 33 -3 4 4 10
15 14 11 4 18 10 15 14 -2 5 7 21 20 37 14 16 28 37 31 47 3 9 10 15 15 12 5
-4 9 3 9 15 0 11 7 23 15 26 8 4 13 10 10 14 -3 4 4 18 14 31 10 13 28 41 40
62 l21 38 -77 -3 c-43 -1 -96 -4 -118 -6z"/>
<path d="M5305 5262 c-2 -3 -16 -6 -30 -8 -14 -1 -32 -8 -40 -14 -8 -6 -18 -9
-23 -6 -5 3 -18 -3 -29 -14 -12 -10 -24 -16 -27 -13 -3 4 -6 1 -6 -5 0 -7 -6
-12 -13 -12 -8 0 -22 -9 -32 -20 -10 -11 -21 -17 -26 -15 -4 3 -10 -3 -14 -14
-3 -11 -12 -21 -19 -24 -11 -4 -89 -112 -92 -127 -1 -7 -14 -41 -24 -65 -26
-59 -33 -185 -16 -261 8 -36 68 -145 82 -151 8 -3 14 -11 14 -19 0 -8 5 -14
10 -14 6 0 10 -8 10 -17 0 -9 3 -14 6 -10 11 10 104 -97 104 -120 0 -7 5 -13
11 -13 5 0 7 -5 3 -11 -3 -6 0 -15 7 -20 8 -5 10 -9 4 -9 -10 0 -12 -77 -2
-87 3 -3 2 -16 -3 -29 -6 -15 -6 -26 1 -30 6 -3 6 -11 1 -17 -4 -7 -7 -21 -5
-32 2 -11 4 -33 6 -49 l3 -29 137 0 c90 0 134 -3 130 -10 -4 -6 -1 -7 8 -1 8
5 46 10 84 10 122 3 112 -1 111 47 -1 23 1 52 5 63 4 12 3 26 -4 33 -8 8 -8
11 2 11 7 0 9 5 6 11 -10 15 -13 59 -5 59 3 0 7 12 7 28 1 62 5 73 41 112 22
22 37 42 35 44 -3 2 4 7 15 10 11 4 30 22 43 41 13 19 28 35 32 35 5 0 5 5 2
10 -3 6 1 10 10 10 9 0 14 4 11 9 -3 5 1 22 10 39 8 17 17 41 19 53 2 11 10
28 17 37 11 13 11 14 -1 7 -11 -6 -12 -5 -5 6 12 20 14 36 13 109 -1 91 -2
110 -9 110 -4 0 -7 6 -8 13 -3 37 -21 80 -66 161 -14 24 -86 99 -86 89 0 -5
-4 -3 -8 2 -20 29 -131 85 -198 101 -35 8 -202 13 -209 6z"/>
<path d="M3826 4738 c-10 -6 -23 -11 -29 -13 -7 -1 -19 -5 -27 -8 -8 -3 -35
-12 -60 -18 -25 -7 -47 -13 -50 -14 -3 -1 -25 -8 -50 -15 -25 -7 -48 -14 -52
-16 -5 -1 -11 -3 -15 -4 -5 -1 -11 -2 -15 -1 -5 0 -8 -2 -8 -6 0 -5 -10 -9
-23 -10 -25 -3 -45 -7 -67 -16 -26 -10 -91 -29 -105 -31 -8 -1 -18 -5 -21 -9
-4 -4 -17 -7 -29 -7 -12 0 -25 -3 -29 -7 -6 -7 -24 -11 -58 -15 -10 -1 -18 -6
-18 -10 0 -4 -8 -8 -18 -8 -10 0 -45 -8 -78 -19 -32 -10 -109 -33 -171 -51
-62 -18 -110 -37 -107 -41 3 -5 -2 -6 -10 -3 -29 11 -16 -15 22 -43 20 -15 39
-31 40 -35 2 -5 10 -8 18 -8 8 0 14 -4 14 -10 0 -5 5 -10 10 -10 10 0 22 -8
55 -37 7 -7 20 -13 28 -13 8 0 17 -7 21 -15 3 -8 12 -15 21 -15 8 0 15 -4 15
-10 0 -5 5 -10 10 -10 12 0 71 -40 82 -55 4 -5 8 -7 8 -2 0 4 18 -4 40 -18 22
-14 44 -25 50 -25 5 0 10 -4 10 -8 0 -14 61 -31 78 -22 10 5 50 21 90 36 39
15 72 32 72 37 0 6 3 7 7 4 3 -4 12 -2 20 4 7 6 13 8 13 5 0 -4 10 -1 23 6 12
7 24 13 27 13 3 1 27 11 53 23 27 12 51 22 53 22 2 0 26 9 52 21 26 12 56 25
67 29 11 5 42 18 69 29 26 12 52 19 56 16 5 -3 10 0 12 5 2 6 10 12 18 14 26
5 54 19 73 34 12 11 17 11 17 3 0 -8 5 -7 16 3 8 9 26 19 40 22 23 6 34 24 14
24 -5 0 -10 5 -10 10 0 6 -13 24 -30 40 -16 16 -30 32 -30 35 0 3 -13 19 -29
34 -16 16 -28 31 -25 33 2 3 -10 17 -26 32 -17 15 -28 31 -25 36 4 6 -1 10 -9
10 -8 0 -18 10 -22 22 -11 37 -48 67 -68 56z"/>
<path d="M6928 4706 c-16 -19 -28 -37 -28 -40 0 -3 -16 -23 -35 -43 -57 -63
-65 -73 -59 -73 3 0 -9 -15 -28 -34 -42 -43 -54 -59 -54 -68 1 -4 -8 -14 -19
-22 -15 -12 -17 -16 -5 -17 8 -1 18 -1 23 0 4 0 7 -3 7 -7 0 -4 20 -14 45 -21
25 -7 45 -17 45 -22 0 -5 6 -9 13 -9 7 0 32 -9 55 -20 22 -11 46 -20 52 -20 5
0 10 -5 10 -12 0 -6 3 -9 6 -6 3 4 22 -1 42 -9 20 -8 48 -20 62 -26 14 -6 28
-10 33 -9 4 1 7 -3 7 -10 0 -6 3 -8 7 -5 3 4 12 2 20 -4 7 -6 13 -8 13 -4 0 4
6 3 13 -3 7 -6 39 -21 72 -33 33 -12 75 -31 93 -41 18 -10 37 -16 42 -13 4 3
10 -2 14 -10 3 -8 14 -15 24 -15 10 0 22 -4 28 -8 5 -4 26 -14 48 -21 34 -12
42 -11 75 5 20 11 38 22 39 27 2 4 8 7 14 7 5 0 23 9 39 21 16 11 29 17 29 14
0 -4 7 1 16 9 8 9 22 16 30 16 8 0 13 4 10 9 -3 5 2 12 12 15 9 3 26 12 37 19
80 50 111 71 117 81 4 6 8 7 8 2 0 -6 7 -1 15 10 8 10 15 16 15 12 0 -5 9 0
19 10 10 9 36 30 56 46 31 25 34 31 20 39 -9 5 -23 6 -31 3 -9 -3 -12 -1 -9 4
4 6 -8 13 -25 16 -17 4 -33 11 -36 15 -3 5 -10 7 -15 4 -5 -4 -15 -3 -21 2 -7
4 -17 8 -23 9 -5 1 -37 9 -70 19 -33 9 -67 18 -75 19 -8 2 -22 6 -30 9 -27 11
-135 40 -147 40 -7 0 -13 3 -13 7 0 3 -8 7 -17 8 -23 2 -44 8 -63 15 -8 4 -26
8 -40 11 -14 2 -36 8 -50 14 -20 8 -88 29 -122 38 -5 1 -9 2 -10 3 -3 2 -27 8
-64 15 -6 1 -23 10 -39 20 -15 10 -24 13 -21 7 10 -15 0 -14 -36 5 -17 9 -39
14 -49 11 -11 -3 -17 -2 -14 3 4 6 -25 19 -45 20 -3 0 -17 -16 -32 -34z"/>
<path d="M4157 4322 c-15 -9 -27 -20 -27 -25 0 -4 -4 -5 -10 -2 -5 3 -10 1
-10 -4 0 -6 -7 -11 -15 -11 -8 0 -15 -4 -15 -10 0 -5 -11 -12 -25 -16 -14 -3
-25 -10 -25 -14 0 -5 -18 -19 -40 -31 -21 -12 -36 -27 -33 -32 3 -6 1 -7 -5
-3 -6 4 -20 -2 -32 -14 -11 -11 -20 -17 -20 -13 0 3 -10 -2 -22 -13 -31 -26
-86 -64 -93 -64 -4 0 -13 -6 -20 -12 -31 -28 -44 -38 -51 -38 -4 0 -22 -11
-40 -25 -18 -14 -36 -25 -41 -25 -4 0 -21 -12 -37 -27 l-29 -27 54 -24 c30
-13 63 -27 74 -32 11 -4 31 -12 45 -18 36 -15 165 -52 183 -52 14 0 78 29 87
39 3 3 32 24 65 45 33 21 77 52 98 68 20 16 37 27 37 24 0 -3 9 2 19 12 32 28
50 42 56 42 2 0 16 10 31 23 14 12 27 21 30 20 2 -1 18 11 35 27 18 16 36 27
41 24 4 -3 8 1 8 8 0 8 -14 25 -30 38 -17 14 -42 35 -55 48 -13 12 -27 22 -30
22 -3 0 -23 17 -45 38 -78 73 -80 74 -113 54z"/>
<path d="M6579 4310 c-39 -39 -139 -124 -158 -134 -32 -17 -50 -38 -44 -52 3
-8 9 -14 14 -14 10 0 24 -10 60 -42 10 -10 24 -18 29 -18 6 0 10 -3 10 -8 0
-4 8 -12 19 -17 24 -13 144 -96 151 -105 3 -4 20 -15 38 -25 17 -11 32 -23 32
-28 0 -4 5 -5 10 -2 6 3 10 2 10 -2 0 -10 62 -49 73 -45 4 1 7 -3 7 -9 0 -5 5
-7 10 -4 6 3 10 1 10 -5 0 -11 66 -12 85 -1 6 3 15 6 20 7 6 1 33 11 61 22 29
12 55 18 58 15 3 -4 6 -1 6 6 0 7 6 11 14 8 8 -3 16 -2 18 4 2 5 13 11 25 13
12 3 32 10 45 17 13 8 26 13 30 14 26 1 6 45 -21 45 -6 0 -11 5 -11 10 0 6 -7
10 -15 10 -8 0 -15 5 -15 10 0 6 -4 10 -10 10 -10 0 -125 76 -148 98 -7 6 -17
12 -21 12 -4 0 -18 9 -31 20 -12 11 -27 17 -31 14 -5 -3 -9 -1 -9 5 0 11 -71
57 -82 53 -5 -1 -7 1 -5 6 1 4 0 7 -3 7 -6 1 -44 32 -72 58 -10 9 -18 14 -18
11 0 -3 -17 7 -37 24 -52 40 -73 43 -104 12z"/>
<path d="M4516 4044 c-9 -8 -16 -20 -16 -26 0 -6 -3 -8 -7 -5 -3 4 -15 -5 -25
-20 -10 -16 -18 -25 -18 -22 0 4 -34 -27 -75 -69 -41 -41 -75 -79 -75 -84 0
-4 -6 -8 -12 -8 -12 0 -58 -58 -58 -72 0 -3 28 -5 63 -4 66 1 107 17 107 41 0
8 4 15 9 15 5 0 26 27 47 60 22 33 42 60 47 60 4 0 7 6 7 13 0 7 8 22 18 33
10 10 27 33 39 50 l22 31 -25 12 c-31 14 -30 14 -48 -5z"/>
<path d="M6237 4049 c-15 -9 -13 -36 3 -49 4 -3 31 -41 61 -85 30 -44 57 -81
62 -83 4 -2 7 -9 7 -15 0 -7 15 -26 33 -44 31 -30 37 -31 104 -30 80 1 80 -1
11 68 -20 20 -40 34 -43 31 -3 -3 -5 -1 -5 5 0 13 -168 183 -180 183 -6 0 -9
5 -7 11 3 15 -25 19 -46 8z"/>
<path d="M5152 3901 l2 -32 113 3 c62 2 113 -1 113 -5 0 -5 5 -5 11 -1 6 3 63
8 127 9 140 3 133 2 130 17 -6 26 -23 36 -46 27 -16 -6 -21 -6 -16 2 4 8 1 8
-13 1 -12 -7 -24 -7 -36 0 -13 7 -22 6 -33 -2 -10 -9 -14 -9 -14 -1 0 9 -5 9
-21 0 -15 -8 -19 -8 -15 0 5 8 0 8 -17 2 -16 -6 -28 -6 -36 2 -8 8 -11 8 -11
-1 0 -8 -7 -9 -26 -2 -16 7 -23 7 -19 0 4 -7 -3 -7 -19 0 -17 6 -26 6 -26 -1
0 -6 -6 -6 -17 -1 -10 5 -27 6 -38 2 -11 -4 -28 -4 -37 1 -10 6 -19 5 -23 -1
-5 -8 -11 -7 -21 1 -12 10 -14 7 -12 -20z"/>
<path d="M5228 3772 c-27 -2 -48 -5 -48 -8 0 -14 32 -65 37 -60 4 3 15 -6 25
-21 10 -16 18 -25 18 -21 0 4 12 1 27 -7 15 -8 30 -12 35 -9 4 3 8 1 8 -4 0
-10 110 -9 158 3 34 8 115 77 125 108 5 13 1 17 -16 18 -90 3 -331 3 -369 1z"/>
</g>
</svg>
